Coordinates
version=1
nRows=65
nColumns=12
inDegrees=yes

Units are S.I. units (second, meters, Newtons, ...)
Angles are in degrees

endheader
time	SC_y	SC_z	SC_x	AC_y	AC_z	AC_x	GH_y	GH_z	GH_yy	EL_x	PS_y
       0.0              -15.76          3.345          34.37          58.02         -2.714         -15.66          83.67          34.15         -74.85          121.3          113.3
  0.004755              -15.76          3.346          34.37          58.02         -2.713         -15.66          83.65          34.14         -74.82          121.3          113.3
   0.00951              -15.77          3.346          34.37          58.02         -2.713         -15.65          83.64          34.13         -74.78          121.3          113.3
   0.01426              -15.77          3.347          34.37          58.02         -2.712         -15.65          83.62          34.12         -74.74          121.3          113.3
   0.01902              -15.78          3.348          34.37          58.02         -2.712         -15.65           83.6          34.11          -74.7          121.3          113.3
   0.02377              -15.79          3.349          34.36          58.02         -2.711         -15.65          83.57          34.11         -74.66          121.3          113.3
   0.02853              -15.79          3.349          34.36          58.02          -2.71         -15.64          83.55           34.1         -74.61          121.2          113.3
   0.03328               -15.8           3.35          34.36          58.03         -2.709         -15.64          83.53          34.09         -74.56          121.2          113.3
   0.03804              -15.81          3.351          34.36          58.03         -2.708         -15.64           83.5          34.07         -74.51          121.2          113.3
   0.04279              -15.82          3.352          34.36          58.03         -2.707         -15.63          83.47          34.06         -74.45          121.2          113.3
   0.04755              -15.83          3.354          34.36          58.03         -2.706         -15.63          83.44          34.05         -74.39          121.2          113.3
    0.0523              -15.84          3.355          34.36          58.03         -2.705         -15.63          83.41          34.04         -74.33          121.2          113.3
   0.05706              -15.85          3.356          34.36          58.03         -2.704         -15.62          83.37          34.02         -74.26          121.2          113.3
   0.06181              -15.86          3.358          34.36          58.03         -2.703         -15.62          83.33           34.0         -74.18          121.2          113.3
   0.06657              -15.87          3.359          34.36          58.04         -2.701         -15.61          83.29          33.99          -74.1          121.1          113.3
   0.07132              -15.88          3.361          34.36          58.04           -2.7         -15.61          83.24          33.97         -74.01          121.1          113.3
   0.07608               -15.9          3.363          34.36          58.04         -2.698          -15.6          83.19          33.95         -73.91          121.1          113.3
   0.08083              -15.91          3.365          34.36          58.04         -2.696         -15.59          83.14          33.93         -73.81          121.1          113.3
   0.08559              -15.93          3.367          34.36          58.04         -2.694         -15.59          83.08           33.9         -73.69          121.1          113.3
   0.09034              -15.95          3.369          34.36          58.05         -2.692         -15.58          83.02          33.87         -73.57          121.0          113.3
    0.0951              -15.97          3.372          34.35          58.05          -2.69         -15.57          82.95          33.85         -73.43          121.0          113.3
   0.09985              -15.99          3.375          34.35          58.05         -2.687         -15.56          82.87          33.81         -73.28          121.0          113.3
    0.1046              -16.02          3.378          34.35          58.06         -2.684         -15.55          82.78          33.78         -73.11          120.9          113.3
    0.1094              -16.05          3.382          34.35          58.06         -2.681         -15.54          82.69          33.74         -72.92          120.9          113.3
    0.1141              -16.08          3.386          34.35          58.06         -2.678         -15.53          82.58          33.69         -72.71          120.9          113.3
    0.1189              -16.11           3.39          34.35          58.07         -2.674         -15.51          82.46          33.64         -72.48          120.8          113.3
    0.1236              -16.15          3.395          34.34          58.08         -2.669          -15.5          82.33          33.59         -72.22          120.8          113.3
    0.1284               -16.2            3.4          34.34          58.08         -2.664         -15.48          82.18          33.53         -71.93          120.7          113.4
    0.1331              -16.25          3.407          34.34          58.09         -2.659         -15.46          82.02          33.46          -71.6          120.6          113.4
    0.1379               -16.3          3.414          34.34           58.1         -2.652         -15.44          81.82          33.38         -71.23          120.6          113.4
    0.1426              -16.37          3.422          34.33          58.11         -2.645         -15.41          81.61          33.29          -70.8          120.5          113.4
    0.1474              -16.44          3.431          34.33          58.12         -2.637         -15.38          81.36          33.18         -70.31          120.4          113.4
    0.1522              -16.53          3.442          34.32          58.13         -2.627         -15.35          81.07          33.06         -69.75          120.2          113.4
    0.1569              -16.63          3.454          34.32          58.14         -2.616         -15.31          80.73          32.93         -69.09          120.1          113.4
    0.1617              -16.74          3.469          34.31          58.16         -2.603         -15.26          80.34          32.76         -68.32          120.0          113.4
    0.1664              -16.88          3.486           34.3          58.18         -2.587         -15.21          79.88          32.57         -67.41          119.8          113.5
    0.1712              -17.04          3.507          34.29           58.2         -2.569         -15.14          79.33          32.34         -66.33          119.6          113.5
    0.1759              -17.24          3.531          34.28          58.23         -2.547         -15.06          78.67          32.07         -65.04          119.3          113.5
    0.1807              -17.48          3.561          34.27          58.26          -2.52         -14.97          77.87          31.74         -63.48          119.0          113.5
    0.1854              -17.76          3.597          34.25           58.3         -2.488         -14.85           76.9          31.33         -61.57          118.6          113.6
    0.1902              -18.12          3.642          34.23          58.35         -2.448         -14.71           75.7          30.83         -59.22          118.1          113.6
    0.1949              -18.57          3.698          34.21          58.41         -2.398         -14.53           74.2          30.21         -56.28          117.5          113.7
    0.1997              -19.13          3.768          34.18          58.49         -2.335          -14.3          72.31          29.43         -52.58          116.7          113.8
    0.2045              -19.84          3.858          34.14          58.59         -2.254         -14.02          69.91          28.43         -47.87          115.8          113.9
    0.2092              -20.75          3.972          34.09          58.72         -2.152         -13.65          66.84          27.16         -41.85          114.5          114.0
     0.214              -21.92          4.119          34.02          58.88          -2.02         -13.18           62.9          25.52         -34.12          113.0          114.2
    0.2187              -23.41          4.307          33.94          59.09         -1.852         -12.58          57.87          23.43         -24.25          110.9          114.4
    0.2235              -25.29          4.543          33.83          59.35          -1.64         -11.82          51.54           20.8         -11.84          108.4          114.7
    0.2282              -27.57          4.831           33.7          59.67         -1.383          -10.9          43.82           17.6           3.29          105.3          115.1
     0.233              -30.22          5.164          33.56          60.04         -1.084         -9.835          34.88          13.88          20.82          101.7          115.5
    0.2377               -33.1          5.525          33.39          60.45        -0.7604          -8.68           25.2          9.862          39.81          97.84          115.9
    0.2425              -35.97          5.886          33.23          60.85        -0.4369         -7.524          15.52          5.841          58.79          93.96          116.3
    0.2473              -38.62           6.22          33.09          61.22        -0.1382         -6.457          6.581          2.127          76.33          90.37          116.7
     0.252               -40.9          6.507          32.96          61.54         0.1196         -5.537         -1.132         -1.076          91.45          87.28          117.1
    0.2568              -42.78          6.743          32.85           61.8         0.3311         -4.781         -7.461         -3.705          103.9          84.74          117.4
    0.2615              -44.27          6.931          32.77          62.01         0.4993          -4.18          -12.5         -5.796          113.7          82.72          117.6
    0.2663              -45.44          7.078           32.7          62.17          0.631          -3.71         -16.44         -7.433          121.5          81.14          117.8
     0.271              -46.35          7.192          32.65           62.3         0.7336         -3.344         -19.51         -8.708          127.5          79.91          117.9
    0.2758              -47.07          7.282          32.61           62.4         0.8138         -3.057         -21.91         -9.705          132.2          78.95          118.0
    0.2805              -47.62          7.352          32.58          62.48         0.8768         -2.832         -23.79         -10.49          135.9          78.19          118.1
    0.2853              -48.07          7.408          32.56          62.54         0.9269         -2.653         -25.29         -11.11          138.8          77.59          118.2
      0.29              -48.43          7.453          32.54          62.59          0.967          -2.51         -26.49         -11.61          141.2          77.11          118.2
    0.2948              -48.71          7.489          32.52          62.63         0.9996         -2.394         -27.47         -12.01          143.1          76.72          118.3
    0.2996              -48.95          7.519          32.51          62.66          1.026         -2.299         -28.26         -12.35          144.7           76.4          118.3
    0.3043              -49.15          7.543          32.49          62.69          1.048          -2.22         -28.92         -12.62          145.9          76.13          118.3
